<svg width="1300" height="1300" viewBox="0 0 1300 1300" fill="none" xmlns="http://www.w3.org/2000/svg">
<mask id="mask0_409_3729" style="mask-type:alpha" maskUnits="userSpaceOnUse" x="0" y="0" width="1296" height="1296">
<circle cx="647.869" cy="647.869" r="647.869" fill="#D9D9D9"/>
</mask>
<g mask="url(#mask0_409_3729)">
<path d="M1003.04 1182.75C1000.07 1184.87 996.668 1186.99 993.694 1189.12C990.295 1191.24 987.321 1193.37 983.923 1195.07C980.949 1196.76 978.4 1198.46 975.426 1200.16C975.001 1200.59 974.576 1200.59 974.151 1201.01C964.38 1206.96 954.184 1212.48 943.988 1217.58C941.014 1219.28 937.615 1220.98 934.641 1222.26C934.641 1222.26 934.217 1222.68 933.792 1222.68C930.393 1224.38 926.994 1226.08 923.596 1227.78C916.798 1231.18 909.576 1234.15 902.779 1237.12C899.38 1238.82 895.556 1240.1 892.158 1241.37C888.759 1242.65 884.936 1244.35 881.537 1245.62C878.138 1246.9 874.315 1248.59 870.916 1249.87C870.916 1249.87 870.916 1249.87 870.491 1249.87C867.092 1251.14 863.269 1252.42 859.87 1253.69C852.223 1256.24 844.151 1258.79 836.504 1261.34C833.955 1262.19 830.981 1263.04 828.432 1263.89C820.36 1266.44 812.289 1268.56 804.217 1270.26C801.243 1271.11 798.269 1271.54 794.87 1272.39C787.223 1274.09 779.151 1275.78 771.504 1277.48C769.805 1277.91 768.53 1277.91 766.831 1278.33C764.282 1278.76 761.308 1279.18 758.759 1279.61C754.936 1280.03 751.537 1280.88 747.713 1281.31C746.014 1281.73 744.315 1281.73 742.615 1282.16C740.491 1282.58 737.942 1283.01 735.393 1283.01C728.596 1283.86 721.373 1284.71 714.576 1285.56C712.452 1285.98 709.903 1285.98 707.779 1286.41H707.354C704.38 1286.83 701.406 1286.83 698.432 1287.25C695.458 1287.68 692.485 1287.68 689.511 1287.68C687.811 1287.68 685.687 1288.1 683.988 1288.1C680.589 1288.1 677.615 1288.53 674.642 1288.53C670.393 1288.53 666.57 1288.95 662.321 1288.95C658.073 1288.95 654.249 1288.95 650.001 1288.95C647.027 1288.95 644.053 1288.95 641.079 1288.95C461.798 1286.41 300.785 1210.36 185.655 1089.71C185.655 1089.71 185.655 1089.28 185.23 1089.28C172.485 1077.81 183.53 1016.63 234.936 977.974C299.511 929.118 454.151 898.53 454.151 898.53C454.151 898.53 514.053 888.758 736.243 935.066C866.243 962.255 965.23 1001.76 1020.46 1108.82C1031.93 1130.92 1043.4 1164.9 1003.04 1182.75Z" fill="white"/>
<path d="M737.517 930.392C819.086 946.961 906.177 964.804 973.301 1018.76C995.818 1037.03 1010.69 1063.79 1023.01 1089.71C1028.96 1102.45 1034.9 1115.62 1039.58 1129.64C1042.12 1138.99 1045.95 1149.61 1043.82 1160.65C1043.4 1163.63 1040.85 1167.45 1038.73 1169.58C1028.96 1179.35 1018.33 1185.29 1007.71 1192.94C945.262 1236.27 873.465 1266.86 799.118 1283.01C633.432 1319.12 454.151 1291.08 308.432 1203.99C260.001 1174.67 215.393 1138.99 177.158 1096.93C172.909 1091.83 172.909 1083.33 172.909 1077.81C173.334 1065.07 176.733 1052.75 180.981 1041.27C191.177 1014.93 204.347 988.595 226.863 970.327C243.007 959.281 260.426 949.935 278.269 942.288C334.347 918.497 393.399 901.928 454.151 895.131C459.249 894.706 460.099 901.928 455.001 902.778C396.798 914.673 339.02 932.516 285.066 956.732C265.524 966.503 244.707 975 228.988 990.294C214.118 1006.44 203.497 1026.41 195.001 1046.8C189.478 1059.12 185.654 1078.66 187.354 1088.43C214.118 1120.29 245.556 1148.33 279.543 1172.55C465.622 1302.55 748.138 1311.05 946.112 1202.71C963.955 1192.94 981.373 1181.9 997.942 1170.42C1006.01 1164.9 1014.51 1160.23 1020.88 1153.86C1021.31 1153.43 1020.88 1153.86 1020.88 1154.28C1020.88 1154.71 1020.46 1155.13 1020.46 1155.13C1020.88 1150.03 1019.18 1143.24 1017.06 1136.44C1009.41 1111.8 997.092 1085.88 983.922 1063.37C963.105 1029.8 927.844 1008.56 892.158 991.569C867.517 980.098 841.602 971.177 815.262 962.68C788.922 954.183 762.158 946.961 735.393 940.588C728.596 938.889 730.72 929.118 737.517 930.392Z" fill="black"/>
<path d="M386.178 911.698C401.047 938.038 457.55 1043.82 466.472 1137.29L519.151 1155.13C519.151 1155.13 479.217 978.398 407.844 896.404C407.844 896.404 399.347 892.581 388.727 899.803C385.328 902.777 383.628 907.45 386.178 911.698Z" fill="black"/>
<path d="M838.203 1138.56C838.203 1138.56 840.752 1020.88 789.771 943.562C788.497 941.438 790.196 938.464 792.745 938.889C796.144 939.738 801.242 941.013 809.314 944.836C822.909 951.209 867.092 1018.76 870.915 1129.64C870.915 1129.22 842.451 1138.56 838.203 1138.56Z" fill="black"/>
<path d="M983.496 1028.1C961.405 1004.74 894.705 969.901 883.235 970.751C883.659 971.601 883.66 972.875 884.084 974.15C901.927 1038.3 887.483 1125.39 822.483 1139.84C754.934 1154.71 698.431 1156.83 562.908 1143.23C463.496 1133.46 370.032 1044.25 322.45 955.882C317.777 946.96 312.254 938.038 306.307 929.967C302.908 927.417 296.535 927.842 291.862 931.666C279.967 941.437 264.248 940.587 264.248 949.934C264.248 949.934 174.182 977.973 142.744 1175.52C124.901 1287.25 99.836 1432.12 98.9863 1481.4H1066.34C1059.54 1415.13 1066.34 1119.87 983.496 1028.1Z" fill="black"/>
<path d="M975.426 1035.75C962.681 1023.01 946.112 1013.23 930.393 1003.89C915.949 995.391 898.106 986.045 883.237 981.796L893.008 968.202L893.433 970.751C905.328 1020.46 902.779 1079.51 868.367 1120.29C856.472 1133.89 839.054 1143.66 821.21 1146.63C788.073 1153.43 753.661 1157.25 719.674 1157.25C660.197 1156.83 601.57 1152.16 542.942 1144.08C501.308 1135.16 462.648 1114.35 429.086 1088.43C381.929 1051.89 345.818 1003.89 312.256 955.032C307.583 948.234 302.06 941.862 296.112 936.339L298.236 938.888C299.086 939.738 299.511 939.313 299.086 939.313C299.086 939.313 298.237 939.313 297.812 939.737C297.387 939.737 297.387 939.737 296.962 940.587C290.165 946.535 279.119 949.509 272.321 953.332C272.746 953.332 273.596 950.783 273.596 950.358L265.949 960.555L264.674 960.979L262.975 961.829C204.772 993.267 176.733 1068.04 161.439 1129.21C146.57 1198.89 137.648 1270.69 125.753 1340.78C118.955 1387.52 110.459 1435.52 108.335 1481.83L97.2888 1470.78H1066.34L1055.72 1482.68C1046.8 1365 1051.47 1126.24 975.426 1035.75ZM991.57 1020.88C1073.56 1116.47 1068.47 1356.5 1077.39 1480.55C1077.81 1486.5 1073.56 1492.02 1067.62 1492.45C1067.19 1493.3 99.413 1492.02 98.9881 1492.45C93.0404 1492.45 87.9424 1487.78 87.9424 1481.83C88.7921 1456.76 92.1907 1432.55 95.1646 1408.76C104.936 1337.38 116.831 1266.44 128.302 1195.49C135.524 1147.91 145.295 1099.05 164.413 1054.02C183.531 1009.41 211.995 962.679 257.877 941.012C258.727 940.587 259.576 940.162 260.851 939.737L253.204 949.934C252.779 935.064 268.923 931.241 279.119 926.992C285.916 923.169 291.439 917.646 299.936 917.646C304.184 917.221 311.831 918.921 315.23 924.019C321.178 935.914 326.276 947.809 331.374 959.705C339.87 978.822 350.916 996.666 363.661 1013.23C409.544 1071.44 471.57 1122.42 545.491 1137.29C570.132 1141.53 595.622 1142.38 620.263 1144.51C686.962 1149.18 754.086 1150.03 819.086 1133.89C834.38 1130.49 847.55 1122.42 857.322 1110.52C886.21 1073.99 886.21 1020.46 873.465 977.123L872.616 973.724C870.491 967.352 875.589 960.13 882.387 960.13C894.707 960.554 904.054 966.502 915.099 971.175C942.289 984.77 969.054 999.215 991.57 1020.88Z" fill="black"/>
<path d="M848.4 1185.72C778.727 1215.46 549.74 1222.25 433.335 1159.38C359.838 1119.87 312.257 1032.78 289.315 999.215C272.322 973.725 263.825 949.934 263.825 949.934C263.825 940.588 279.969 941.438 291.44 931.666C296.113 927.843 302.485 927.418 305.884 929.967C311.832 938.464 317.355 946.96 322.028 955.882C369.61 1043.82 444.806 1132.19 562.485 1143.24C698.008 1155.98 754.511 1154.71 822.06 1139.84C887.06 1125.39 901.505 1038.3 883.662 974.15C883.237 973.3 883.237 972.026 882.812 970.751C894.283 969.902 916.374 972.026 924.446 992.418C924.871 992.418 957.583 1139.41 848.4 1185.72Z" fill="white"/>
<path d="M850.949 1191.67C822.909 1203.14 793.596 1207.38 764.282 1210.78C734.968 1214.18 705.654 1215.46 676.341 1215.46C602.844 1214.61 528.073 1207.81 458.824 1181.47C379.805 1153.01 328.824 1081.21 286.341 1013.23C273.596 994.542 261.7 975.424 254.478 953.757C252.354 948.234 255.752 940.587 260.426 937.189C266.798 932.091 274.02 932.091 280.393 929.542C284.641 928.267 287.19 925.718 291.014 923.594C297.811 920.62 305.458 918.071 313.955 921.895C362.811 1028.53 443.105 1130.49 568.857 1139.41C652.125 1147.06 737.092 1155.55 819.511 1136.44C852.648 1130.91 874.315 1101.18 881.962 1069.74C890.458 1037.88 887.909 1003.46 878.988 972.025C878.138 969.051 880.262 966.078 883.236 966.078C901.504 964.378 924.02 972.45 930.393 991.568C937.615 1029.8 937.615 1068.89 926.569 1105.85C915.524 1143.66 887.484 1176.8 850.949 1191.67ZM845.851 1179.77C879.837 1166.18 904.903 1137.29 916.373 1102.88C927.844 1068.04 929.118 1029.38 921.896 993.267C916.798 979.248 898.955 973.3 883.661 975.424L887.909 969.476C902.354 1023.86 899.38 1102.03 845.426 1134.74C837.779 1138.99 829.282 1141.96 820.785 1143.66C804.216 1147.06 787.223 1150.03 770.654 1152.16C703.105 1159.38 635.132 1153.86 568.007 1148.33C452.877 1142.38 364.086 1051.89 314.805 954.182C311.406 946.535 307.583 939.313 303.759 931.666L304.609 932.516C298.236 928.692 291.439 937.614 285.491 939.738C279.968 942.712 274.02 943.986 269.347 946.96C268.498 947.81 268.073 948.659 268.073 949.934V948.659C277.844 975.424 295.687 999.64 310.981 1023.43C349.641 1082.91 396.373 1142.81 465.197 1167.45C561.21 1205.69 747.288 1215.03 845.851 1179.77Z" fill="black"/>
<path d="M777.448 1043.4C768.526 1087.16 710.748 1113.5 613.461 1073.99C512.35 1033.2 468.592 935.915 457.546 907.026C517.448 794.869 475.814 717.124 475.814 717.124C613.886 705.229 734.539 866.667 734.539 866.667L753.232 946.536C754.932 953.333 758.33 959.281 763.428 963.529C772.35 979.248 782.971 1015.36 777.448 1043.4Z" fill="white"/>
<path d="M455.423 908.301C463.495 895.98 468.593 881.536 471.992 867.516C478.364 838.203 480.489 808.464 480.913 778.725V767.68C479.639 756.634 475.815 745.163 471.567 734.967C466.044 721.373 486.011 712.876 492.384 726.471C493.234 728.17 493.234 731.144 493.234 732.843C494.508 790.621 497.057 864.967 460.521 912.974C457.972 915.523 452.874 911.699 455.423 908.301Z" fill="black"/>
<path d="M739.212 865.817C745.585 869.641 747.709 874.739 748.559 879.837C751.108 890.033 750.258 901.079 752.807 911.7C754.931 921.896 761.304 931.667 763.003 942.288C765.128 953.334 771.5 976.7 774.049 988.17C774.899 990.719 773.199 993.693 770.226 994.118C768.526 994.543 767.252 994.118 765.977 993.268C760.454 988.595 757.905 983.922 754.507 977.974C748.984 967.778 745.16 958.432 741.762 946.961C738.788 936.765 740.062 925.719 737.513 915.098C735.389 904.902 729.441 895.131 727.317 884.51C726.043 879.412 725.618 873.889 729.441 867.517C731.99 864.968 736.239 864.118 739.212 865.817Z" fill="black"/>
<path d="M769.802 977.974C688.658 973.725 622.384 948.235 557.809 833.104C612.188 881.111 676.338 899.379 743.887 907.876L752.809 946.961C754.508 953.758 764.704 973.725 769.802 977.974Z" fill="black"/>
<path d="M766.405 962.255C780.85 989.444 789.347 1023.43 780.425 1053.59C773.628 1074.84 754.085 1090.56 732.843 1096.5C683.562 1109.67 626.634 1088.86 582.876 1065.49C528.922 1035.33 488.987 984.771 463.497 929.542C461.798 925.294 467.745 921.895 470.294 926.144C479.216 943.987 489.412 961.405 500.882 977.124C512.353 993.268 525.523 1008.14 540.392 1021.31C583.726 1060.39 642.353 1084.61 700.981 1084.61C761.307 1082.91 784.249 1051.05 770.229 992.418C768.105 983.072 764.706 973.301 760.033 965.229C757.484 961.83 763.856 958.006 766.405 962.255Z" fill="black"/>
<path d="M930.816 452.026C938.463 487.712 912.973 525.948 912.973 621.111C912.973 718.399 895.129 824.183 821.633 897.68C758.332 960.98 685.685 958.431 600.293 891.732C588.397 882.386 546.763 850.948 536.142 840.327C523.822 828.007 517.025 819.085 511.077 809.739C505.979 801.242 507.254 751.961 500.031 740.49C481.339 709.477 477.515 743.039 453.299 715.85C419.737 679.314 379.378 605.817 399.345 475.817C431.633 265.098 598.593 240.458 722.221 263.824C846.698 287.614 910.424 358.137 930.816 452.026Z" fill="white"/>
<path d="M474.541 753.66C464.77 737.516 452.449 723.072 440.979 708.202C429.508 692.484 420.162 675.915 412.515 658.072C369.181 553.137 375.554 415.915 452.449 327.549C505.129 267.222 588.397 247.255 664.868 251.503C741.338 256.176 820.783 275.719 877.286 330.948C909.998 362.81 930.815 405.294 940.162 449.477C943.136 463.497 941.011 478.791 937.613 491.961C927.842 528.921 918.495 564.183 917.645 602.418C918.07 659.346 916.371 717.549 899.802 772.353C887.907 808.889 873.887 845.425 851.796 877.287C828.855 909.575 794.443 935.49 754.933 943.137C675.489 959.281 601.142 909.15 548.462 854.771C546.338 852.222 549.312 849.248 551.861 850.948C582.024 873.889 613.038 895.131 646.6 909.575C743.462 954.183 823.757 912.974 866.24 819.51C901.926 751.536 912.123 678.039 909.149 601.993C909.149 582.876 909.998 563.758 912.547 544.64C915.096 517.026 924.443 489.412 924.018 462.222C916.796 418.039 896.404 375.555 865.815 342.843C793.168 265.948 653.822 243.431 556.109 278.268C440.979 319.052 409.966 435.033 403.593 545.915C399.345 612.189 418.887 677.189 469.018 722.647L488.985 743.464C495.783 752.81 481.338 763.856 474.541 753.66Z" fill="black"/>
<path d="M524.672 618.562C524.672 618.562 511.502 554.837 449.476 562.484C395.946 569.281 377.254 697.582 498.757 733.268" fill="white"/>
<path d="M493.234 677.614C483.463 672.092 476.666 662.745 476.241 651.275C476.666 642.778 477.94 633.007 475.816 624.51C474.541 616.438 466.045 614.314 459.672 614.739C452.875 616.013 448.626 624.51 447.352 631.307C447.352 631.732 446.927 633.007 446.927 633.431C446.502 635.556 443.103 635.556 442.254 633.431C436.731 616.863 449.051 598.595 466.894 600.719C491.96 602.418 495.358 628.758 490.685 648.726C488.136 657.222 491.535 664.869 496.208 672.092L497.058 673.366C499.182 675.915 495.783 679.314 493.234 677.614Z" fill="black"/>
<path d="M833.103 573.529C839.476 603.693 851.371 631.732 866.241 658.072C879.411 690.359 845.424 720.947 815.26 719.673C811.862 719.673 811.437 715 814.411 714.15C833.528 708.202 850.947 695.457 853.92 675.915C855.195 669.967 853.496 664.869 850.522 659.771C836.502 633.431 828.005 603.268 830.13 573.529C830.13 571.405 833.103 571.405 833.103 573.529Z" fill="black"/>
<path d="M522.549 618.987C512.777 593.921 491.536 570.13 463.072 570.555C460.523 570.13 456.274 570.98 453.725 570.98C446.503 571.405 440.555 573.954 435.032 579.052C407.843 606.241 412.516 654.248 434.608 684.411C442.255 695.032 452.026 704.379 463.072 712.026C474.117 719.673 486.438 725.621 499.608 730.719C502.581 731.568 501.307 736.241 498.333 735.817C469.869 729.869 442.679 715.849 423.987 692.483C395.098 657.647 389.15 599.444 423.562 565.457C431.209 558.66 441.83 553.562 452.451 553.562C455.849 553.562 460.947 552.712 464.346 553.562C482.189 554.411 499.183 563.333 510.228 577.353C520 589.248 525.523 603.692 527.222 618.137C527.222 620.686 523.398 621.536 522.549 618.987Z" fill="black"/>
<path d="M791.044 760.457C791.469 767.255 786.371 779.15 777.024 787.647C729.018 758.333 707.351 773.627 707.351 773.627C690.358 747.712 694.181 712.451 735.39 739.215C763.854 757.908 781.697 760.882 791.044 760.457Z" fill="black"/>
<path d="M776.599 788.072C766.403 796.993 751.109 802.516 730.292 794.019C720.521 790.196 712.873 782.549 706.926 774.052C707.351 774.052 728.592 758.758 776.599 788.072Z" fill="white"/>
<path d="M799.116 759.183C799.116 759.183 781.273 768.954 735.39 739.64C680.586 704.379 691.632 778.3 730.292 794.019C770.652 810.588 791.469 774.477 791.044 760.882" stroke="black" stroke-width="3" stroke-miterlimit="10" stroke-linecap="round" stroke-linejoin="round"/>
<path d="M707.354 774.052C707.354 774.052 729.02 758.758 777.027 788.072" stroke="black" stroke-width="3" stroke-miterlimit="10" stroke-linecap="round" stroke-linejoin="round"/>
<path d="M740.065 518.3C749.411 517.451 754.084 506.405 748.986 497.908C746.012 493.66 742.189 489.836 736.666 487.712C720.522 482.614 667.842 494.085 644.901 520.424C624.509 544.64 697.581 522.124 740.065 518.3Z" fill="black"/>
<path d="M852.223 525.097C845.001 522.973 842.877 512.352 848.824 505.555C851.798 502.156 856.047 499.182 860.72 498.333C875.164 495.784 908.301 508.953 917.648 534.019C926.145 555.686 886.635 533.594 852.223 525.097Z" fill="black"/>
<path d="M674.642 616.863C664.446 616.438 656.799 607.941 657.648 597.745L658.073 585.849C658.498 575.653 666.995 568.006 677.191 568.856C687.387 569.281 695.034 577.778 694.184 587.974L693.76 599.869C693.335 609.64 684.838 617.287 674.642 616.863Z" fill="black"/>
<path d="M853.496 623.235C844.149 622.81 836.927 614.738 837.352 605.392L837.777 594.346C838.201 585 846.273 577.778 855.62 578.202C864.966 578.627 872.188 586.699 871.764 596.046L871.339 607.091C870.914 616.438 862.842 623.66 853.496 623.235Z" fill="black"/>
<path d="M712.875 593.921C698.855 584.575 683.561 578.202 666.568 581.601C661.045 582.45 655.522 584.15 652.123 587.973C650.849 589.673 647.875 589.248 647.875 586.699C648.3 578.202 655.522 572.679 662.319 569.28C675.489 562.483 693.757 563.758 705.653 572.679C709.901 575.228 724.346 590.947 716.699 594.346C714.999 595.195 714.15 594.771 712.875 593.921Z" fill="black"/>
<path d="M834.377 596.046C834.377 578.203 856.469 571.83 870.063 578.203C877.71 581.602 883.233 588.399 885.357 596.471C886.207 599.02 882.384 601.144 880.684 599.02C873.462 590.523 861.142 586.275 851.37 591.373C848.397 593.072 847.972 594.347 847.122 596.046C847.122 604.543 834.802 604.118 834.377 596.046Z" fill="black"/>
<path d="M932 573.952C932.425 571.828 932.85 569.704 932.85 567.58C937.098 540.815 940.072 516.174 941.771 492.808C945.17 445.227 936.249 359.41 867.85 308.005C861.902 303.331 855.53 299.083 848.307 295.259C842.36 291.861 835.987 288.887 829.615 285.913C773.961 262.122 684.32 233.658 595.53 248.952C561.543 254.475 527.556 266.795 495.693 287.612C495.268 287.612 495.268 288.037 495.268 288.037C417.948 339.018 390.758 419.737 376.314 495.782C371.641 519.998 368.242 544.214 365.268 566.305C363.569 577.776 361.869 588.822 360.17 599.018C353.797 637.678 332.556 672.089 310.039 699.279C308.765 700.554 307.49 702.253 306.216 703.527C287.948 724.344 269.68 740.913 256.935 750.684C256.085 751.109 255.235 751.959 254.811 752.384C282.85 840.75 389.909 907.024 488.896 926.991C503.34 863.691 513.111 799.54 500.791 733.691C497.392 732.416 495.693 731.142 495.693 730.292C378.438 693.331 397.131 567.58 450.235 560.782C469.353 558.233 483.373 562.906 494.418 569.704C509.288 580.75 525.431 608.364 525.431 616.436C526.281 597.743 534.353 571.828 544.124 570.978C554.32 570.129 564.516 568.005 574.288 564.181C623.144 547.188 667.752 501.305 707.262 460.521C761.641 404.442 805.824 356.861 837.262 404.018C838.961 406.567 840.66 409.116 841.935 411.665C879.32 410.815 896.739 432.482 905.66 454.998C905.66 454.998 905.66 454.998 905.66 455.423C912.883 474.54 913.732 494.083 914.582 499.181C914.582 500.031 914.582 500.456 915.007 500.456C914.157 517.449 912.033 546.338 911.608 583.723C911.608 600.717 913.307 634.704 912.033 654.246C911.608 660.194 911.183 666.142 910.758 671.665C910.333 674.639 910.334 677.612 909.909 680.161C909.484 682.71 909.484 685.684 909.059 688.658C908.634 692.906 908.209 697.155 907.784 701.828C907.36 705.652 906.935 709.475 906.51 713.299V713.723C906.085 716.697 905.66 719.246 905.235 721.795C898.863 755.782 889.092 791.893 875.072 813.56C847.033 857.318 824.941 894.279 784.582 912.972C744.647 931.24 699.19 935.063 699.19 935.063C699.19 935.063 711.935 943.135 742.098 944.835C771.837 946.534 793.928 937.612 816.02 941.436C863.177 949.508 946.02 949.508 946.02 949.508C1008.05 786.371 903.111 778.723 932 573.952Z" fill="black"/>
<path d="M601.144 700.98C613.039 694.608 624.51 687.811 637.68 684.412C638.954 684.412 639.804 683.987 642.353 684.837C651.274 691.634 625.359 708.628 620.686 712.876C621.961 711.177 621.536 708.203 619.412 707.353C618.987 707.353 618.987 706.928 618.562 706.928C617.712 706.928 617.712 706.928 617.712 706.928C628.333 703.105 638.954 698.856 649.15 693.758C655.098 691.209 663.17 685.686 669.542 685.262C672.091 685.262 675.065 687.811 674.64 690.36C674.216 693.758 673.366 695.033 672.516 697.157C671.667 698.856 669.967 701.405 669.542 703.105C669.542 703.529 669.118 702.68 669.118 702.68C669.118 703.105 671.667 703.105 672.091 702.68C678.889 701.83 686.111 699.281 692.908 696.732C694.183 696.307 695.033 698.007 693.758 698.856C686.536 703.529 678.889 708.628 669.542 709.477C663.595 709.902 660.621 704.379 662.745 699.281C663.595 696.307 665.719 692.909 666.569 690.36C666.569 691.209 667.418 692.484 668.268 692.909C669.118 693.333 669.542 692.909 669.118 693.333C664.869 694.608 656.372 699.281 652.549 700.98C641.503 706.079 630.882 710.752 618.987 714.15C618.137 714.15 618.137 714.575 616.863 714.15C613.464 713.726 612.614 709.477 615.163 707.353C620.261 703.105 626.209 699.706 630.882 695.458C633.431 693.333 636.405 690.36 638.104 687.811C638.104 688.235 638.529 689.085 638.954 689.51C635.131 689.935 627.484 692.059 622.81 694.183C616.013 696.732 608.791 699.706 601.993 702.68C601.144 703.529 599.869 701.405 601.144 700.98Z" fill="black"/>
<path d="M876.437 700.98C880.261 696.732 896.405 676.34 900.653 686.961C900.653 687.81 900.653 688.66 900.653 689.085C898.954 697.582 893.431 704.804 889.183 712.026C890.032 709.902 888.333 706.928 886.209 706.503C885.359 706.503 884.934 706.503 884.509 706.503C884.084 706.503 884.509 706.503 884.934 706.078C893.431 700.556 899.803 693.758 908.3 687.81C910 686.961 912.124 685.686 914.248 686.961C916.372 688.66 915.947 691.209 915.098 692.908C914.248 695.033 913.398 696.732 912.549 698.856C912.124 699.281 911.699 699.706 910.849 699.281C910.424 699.281 910.424 698.856 910.424 698.431C910.424 697.582 910.424 692.059 910.424 691.209C910 690.359 910.424 690.784 910.424 691.209C910.424 691.634 911.274 692.484 912.124 692.484C912.549 692.484 913.398 692.484 913.398 692.484C906.176 700.98 897.679 709.052 887.908 714.575C884.934 715.85 881.535 713.301 881.96 709.902C881.96 709.477 882.385 708.627 882.81 708.203C885.784 703.954 889.183 699.706 891.732 695.457C893.006 693.333 894.705 690.359 895.13 688.235C895.13 689.085 896.83 690.359 897.254 689.935C890.457 692.484 884.509 698.007 878.562 702.255C876.862 703.529 875.588 701.83 876.437 700.98Z" fill="black"/>
<path d="M1224.38 358.137C1482.25 854.771 1028.95 1415.13 488.562 1278.33C245.98 1218.01 50.9803 1007.71 10.6208 760.882C-35.2615 515.327 75.6208 251.503 282.941 112.582C567.157 -82.8433 960.98 -17.8433 1164.48 261.699C1165.75 262.974 1165.33 265.098 1163.63 266.372C1162.35 267.647 1160.23 267.222 1158.95 265.523C1130.91 229.412 1099.05 196.699 1064.22 167.385C1006.86 118.529 939.738 80.2939 868.791 54.3789C507.68 -76.4708 111.307 141.046 32.2875 518.725C-56.9282 941.863 302.908 1331.44 731.993 1273.24C1062.94 1231.6 1308.92 926.144 1281.73 593.921C1275.78 513.627 1254.54 434.183 1219.28 361.111C1218.43 359.836 1219.28 358.137 1220.56 357.287C1221.83 356.438 1223.53 356.863 1224.38 358.137Z" fill="black"/>
</g>
</svg>
