<svg width="1300" height="1300" viewBox="0 0 1300 1300" fill="none" xmlns="http://www.w3.org/2000/svg">
<mask id="mask0_409_3709" style="mask-type:alpha" maskUnits="userSpaceOnUse" x="0" y="0" width="1296" height="1296">
<circle cx="647.869" cy="647.869" r="647.869" fill="#D9D9D9"/>
</mask>
<g mask="url(#mask0_409_3709)">
<path d="M1003.04 1182.75C1000.07 1184.87 996.667 1186.99 993.693 1189.12C990.295 1191.24 987.321 1193.37 983.922 1195.07C980.948 1196.76 978.399 1198.46 975.425 1200.16C975 1200.59 974.576 1200.59 974.151 1201.01C964.38 1206.96 954.183 1212.48 943.987 1217.58C941.013 1219.28 937.615 1220.98 934.641 1222.26C934.641 1222.26 934.216 1222.68 933.791 1222.68C930.393 1224.38 926.994 1226.08 923.595 1227.78C916.798 1231.18 909.576 1234.15 902.778 1237.12C899.38 1238.82 895.556 1240.1 892.157 1241.37C888.759 1242.65 884.935 1244.35 881.536 1245.62C878.138 1246.9 874.314 1248.59 870.915 1249.87C870.915 1249.87 870.915 1249.87 870.491 1249.87C867.092 1251.14 863.268 1252.42 859.87 1253.69C852.223 1256.24 844.151 1258.79 836.504 1261.34C833.955 1262.19 830.981 1263.04 828.432 1263.89C820.36 1266.44 812.288 1268.56 804.216 1270.26C801.242 1271.11 798.268 1271.54 794.87 1272.39C787.223 1274.09 779.151 1275.78 771.504 1277.48C769.804 1277.91 768.53 1277.91 766.831 1278.33C764.281 1278.76 761.308 1279.18 758.759 1279.61C754.935 1280.03 751.536 1280.88 747.713 1281.31C746.013 1281.73 744.314 1281.73 742.615 1282.16C740.491 1282.58 737.942 1283.01 735.393 1283.01C728.595 1283.86 721.373 1284.71 714.576 1285.56C712.451 1285.98 709.902 1285.98 707.778 1286.41H707.353C704.38 1286.83 701.406 1286.83 698.432 1287.25C695.458 1287.68 692.484 1287.68 689.51 1287.68C687.811 1287.68 685.687 1288.1 683.987 1288.1C680.589 1288.1 677.615 1288.53 674.641 1288.53C670.393 1288.53 666.569 1288.95 662.321 1288.95C658.072 1288.95 654.249 1288.95 650 1288.95C647.027 1288.95 644.053 1288.95 641.079 1288.95C461.798 1286.41 300.785 1210.36 185.654 1089.71C185.654 1089.71 185.654 1089.28 185.229 1089.28C172.484 1077.81 183.53 1016.63 234.935 977.974C299.51 929.118 454.151 898.53 454.151 898.53C454.151 898.53 514.053 888.758 736.242 935.066C866.242 962.255 965.229 1001.76 1020.46 1108.82C1031.93 1130.92 1043.4 1164.9 1003.04 1182.75Z" fill="white"/>
<path d="M737.517 930.392C819.086 946.961 906.177 964.804 973.301 1018.76C995.818 1037.03 1010.69 1063.79 1023.01 1089.71C1028.96 1102.45 1034.9 1115.62 1039.58 1129.64C1042.12 1138.99 1045.95 1149.61 1043.82 1160.65C1043.4 1163.63 1040.85 1167.45 1038.73 1169.58C1028.96 1179.35 1018.33 1185.29 1007.71 1192.94C945.262 1236.27 873.465 1266.86 799.118 1283.01C633.432 1319.12 454.151 1291.08 308.432 1203.99C260.001 1174.67 215.393 1138.99 177.158 1096.93C172.909 1091.83 172.909 1083.33 172.909 1077.81C173.334 1065.07 176.733 1052.75 180.981 1041.27C191.177 1014.93 204.347 988.595 226.863 970.327C243.007 959.281 260.426 949.935 278.269 942.288C334.347 918.497 393.399 901.928 454.151 895.131C459.249 894.706 460.099 901.928 455.001 902.778C396.798 914.673 339.02 932.516 285.066 956.732C265.524 966.503 244.707 975 228.988 990.294C214.118 1006.44 203.497 1026.41 195.001 1046.8C189.478 1059.12 185.654 1078.66 187.354 1088.43C214.118 1120.29 245.556 1148.33 279.543 1172.55C465.622 1302.55 748.138 1311.05 946.112 1202.71C963.955 1192.94 981.373 1181.9 997.942 1170.42C1006.01 1164.9 1014.51 1160.23 1020.88 1153.86C1021.31 1153.43 1020.88 1153.86 1020.88 1154.28C1020.88 1154.71 1020.46 1155.13 1020.46 1155.13C1020.88 1150.03 1019.18 1143.24 1017.06 1136.44C1009.41 1111.8 997.092 1085.88 983.922 1063.37C963.105 1029.8 927.844 1008.56 892.158 991.569C867.517 980.098 841.602 971.177 815.262 962.68C788.922 954.183 762.158 946.961 735.393 940.588C728.596 938.889 730.72 929.118 737.517 930.392Z" fill="black"/>
<path d="M390.426 822.909C390.426 822.909 429.936 813.562 446.504 812.288L451.602 858.595C451.602 858.17 390.851 834.804 390.426 822.909Z" fill="black"/>
<path d="M1062.94 1446.14H69.6743C69.6743 1446.14 132.975 1310.62 155.066 1157.68C170.361 1051.05 188.629 993.693 245.132 959.706C308.857 921.47 411.668 904.052 453.302 893.006C453.302 895.131 453.727 896.83 453.727 898.954C453.727 898.954 499.609 1035.33 618.988 1083.76C716.276 1123.27 774.053 1096.93 782.975 1053.17C788.498 1025.13 771.08 979.248 762.158 964.379C757.06 960.131 753.661 953.758 751.962 947.385L748.563 933.366C759.184 931.242 769.38 928.268 779.151 924.444C833.955 938.889 939.74 966.503 1004.31 1048.5C1020.46 1068.89 1071.01 1177.22 1061.67 1360.33C1058.27 1455.49 1062.94 1446.14 1062.94 1446.14Z" fill="black"/>
<path d="M279.968 1446.14L260.851 1288.53" stroke="white" stroke-width="3" stroke-miterlimit="10" stroke-linecap="round" stroke-linejoin="round"/>
<path d="M1022.16 1235C1022.16 1235 1009.41 1266.01 1013.24 1297.03C1017.06 1328.04 1028.11 1373.5 1012.39 1446.14" stroke="white" stroke-width="3" stroke-miterlimit="10" stroke-linecap="round" stroke-linejoin="round"/>
<path d="M587.124 1162.78C352.189 1094.8 293.137 956.733 293.137 956.733C293.137 956.733 330.098 933.792 347.516 910.001C358.137 895.556 453.725 878.988 453.725 878.988C455.424 897.256 453.725 878.988 454.999 898.955C454.999 898.955 500.882 1035.33 620.261 1083.76C717.548 1123.27 775.326 1096.93 784.248 1053.17C789.771 1025.13 772.352 979.249 763.431 964.38C758.333 960.132 754.934 953.759 753.235 947.387L749.836 933.367C774.052 928.269 796.993 918.922 816.96 906.602C817.81 907.877 818.235 909.151 818.66 910.426C827.581 932.092 854.771 951.635 854.771 951.635C911.274 1085.88 826.307 1232.03 587.124 1162.78Z" fill="black"/>
<path d="M871.766 945.686C871.766 945.686 891.308 936.34 910.851 938.464C930.393 940.588 1023.43 1015.78 1032.35 1031.5C1041.7 1047.22 1041.28 1097.35 1030.23 1103.73C1019.18 1110.1 1012.81 1096.08 1012.81 1096.08C1012.81 1096.08 1020.88 1050.2 1011.96 1041.7C1003.04 1033.2 916.798 960.98 913.824 960.556C910.851 960.131 894.707 973.725 894.707 973.725L871.766 945.686Z" fill="black"/>
<path d="M356.864 919.771C356.864 919.771 312.681 897.255 296.112 897.255C279.543 897.255 183.106 956.732 169.936 987.745C156.766 1018.76 174.609 1081.21 174.609 1081.21L197.975 1054.44C197.975 1054.44 191.602 1007.71 198.4 990.719C205.197 973.725 282.092 923.595 288.89 924.869C295.687 925.719 333.498 949.935 333.498 949.935L356.864 919.771Z" fill="black"/>
<path d="M457.125 1001.76C497.909 1079.93 579.478 1184.02 715.85 1232.88C838.628 1277.06 830.981 1128.79 813.138 1040C690.785 1066.76 568.007 1068.89 457.125 1001.76Z" fill="white"/>
<path d="M813.136 1040.42C808.463 1017.06 802.94 997.941 799.116 987.32C790.62 964.379 777.875 943.987 766.404 928.693C760.881 930.392 755.358 931.666 749.835 932.941L753.234 946.96C754.933 953.758 758.332 959.706 763.43 963.954C764.28 965.653 765.554 967.777 766.829 970.326C670.391 1007.71 556.535 958.431 556.535 958.431C522.123 956.732 524.672 990.719 540.816 1031.08C479.639 972.876 454.574 898.954 454.574 898.954C453.724 886.209 452.875 873.889 451.6 861.568C451.6 861.568 420.162 878.987 425.685 918.072C428.234 934.64 438.005 965.653 457.123 1001.76C568.005 1068.89 690.783 1066.76 813.136 1040.42Z" fill="white"/>
<path d="M811.437 1039.15C810.163 1037.03 809.738 1035.75 808.888 1033.2C803.79 1016.63 798.267 999.215 790.62 983.921C781.699 966.078 770.228 949.934 757.483 935.065L769.378 938.889L751.96 943.562L760.457 930.392C761.306 934.215 763.43 943.137 764.28 946.536C765.555 951.634 769.378 955.032 772.352 958.856C771.927 962.255 771.502 965.653 770.653 968.627C771.502 971.176 770.653 974.15 768.104 975.424C755.783 981.372 742.189 986.045 728.594 989.019C678.463 999.215 627.483 987.745 579.476 973.725C570.13 970.751 561.633 968.627 551.437 969.477L555.261 970.326C552.712 970.326 549.738 970.326 547.189 971.176C534.444 975 540.391 997.091 542.94 1007.71C545.065 1014.51 547.189 1021.31 550.163 1028.1C552.712 1033.63 549.738 1040 544.215 1042.55C539.966 1044.25 535.718 1042.97 532.744 1040C522.973 1030.23 513.627 1020.46 505.13 1009.84C479.215 977.549 458.823 942.287 443.953 903.627L454.149 910.849C448.202 910.849 443.529 906.176 443.104 900.653L440.13 863.692L456.274 872.189C437.156 883.66 431.633 907.451 438.006 927.843C444.378 951.634 454.574 975.424 466.045 997.516L461.797 993.268C565.032 1062.52 693.757 1068.04 811.437 1039.15ZM814.836 1041.27C800.816 1051.47 776.6 1059.97 758.757 1063.79C716.699 1073.14 672.515 1067.61 630.457 1060.82C617.287 1058.69 598.169 1056.14 584.574 1054.02L562.058 1049.35C531.895 1042.12 502.156 1032.35 473.267 1020.46L462.646 1015.78L451.6 1011.11C450.326 1010.69 449.051 1009.41 448.202 1008.14C434.182 980.947 421.437 952.483 415.489 921.895C409.966 895.13 422.712 865.817 446.502 851.797C453.3 847.973 462.221 852.647 462.646 860.294L465.62 897.679C465.62 897.679 454.574 887.483 454.999 887.483C459.672 887.483 463.921 890.457 465.195 894.706C478.365 930.392 498.332 964.804 522.548 994.542C530.62 1004.74 539.542 1013.66 548.463 1023.01L531.045 1034.9C522.548 1011.96 511.078 982.647 526.372 959.705C533.594 950.359 545.914 946.96 557.385 947.385L561.208 948.235C567.156 955.882 575.653 959.281 583.725 961.83C625.359 975.424 670.391 977.973 714.149 974.575C731.568 972.875 748.561 969.477 765.555 965.228L763.006 972.026C760.032 970.751 757.483 969.902 754.509 969.477L756.633 972.026C748.561 965.228 743.463 953.758 741.764 943.562L739.64 935.065C738.365 929.117 742.189 923.17 748.136 921.895L763.855 918.072H764.705C768.953 916.797 773.627 918.921 775.751 922.32C792.744 948.66 805.489 978.398 811.012 1009.41C812.712 1016.63 813.561 1024.71 814.836 1032.35C814.411 1034.9 814.836 1038.73 814.836 1041.27Z" fill="black"/>
<path d="M390.426 822.909C390.426 822.909 495.36 826.307 575.23 847.549C582.877 849.673 582.877 898.954 583.726 907.026C586.7 935.915 526.373 985.196 533.171 1011.11C542.092 1044.67 782.975 1233.3 785.099 1255.39C787.223 1277.48 610.491 1271.96 505.556 1146.21C400.197 1020.46 408.269 997.517 408.269 997.517C408.269 997.517 390.426 876.863 390.426 822.909Z" fill="black"/>
<path d="M861.57 868.366L888.759 879.837C897.256 883.236 901.504 893.007 898.531 901.928C886.21 939.314 855.622 1032.35 854.348 1064.64C852.648 1105.43 768.531 1367.55 768.531 1367.55C768.531 1367.55 717.125 1300 754.936 1233.3C784.674 1180.62 786.374 1068.04 783.4 1053.17C779.576 1033.63 763.433 987.745 754.511 958.856C749.838 943.137 748.988 933.366 748.988 933.366C748.988 933.366 807.616 923.595 861.57 868.366Z" fill="black"/>
<path d="M545.489 938.039C552.293 938.039 557.81 931.762 557.81 924.02C557.81 916.277 552.293 910 545.489 910C538.685 910 533.169 916.277 533.169 924.02C533.169 931.762 538.685 938.039 545.489 938.039Z" fill="white"/>
<path d="M764.282 1220.98C760.883 1243.92 757.485 1267.29 759.184 1290.65C764.707 1325.07 766.831 1359.48 769.805 1393.89C770.23 1402.39 757.909 1403.24 757.06 1394.74C755.785 1360.33 754.936 1325.49 750.687 1291.08C749.838 1266.86 754.086 1243.07 758.759 1219.71C759.609 1216.73 764.707 1217.58 764.282 1220.98Z" fill="white"/>
<path d="M881.96 965.228C874.313 1003.04 865.816 1041.27 851.797 1077.38C830.555 1122.42 801.666 1163.2 777.025 1205.69C774.901 1209.51 768.954 1206.53 770.653 1202.71C791.045 1154.7 820.784 1111.8 840.751 1064.21C842.45 1059.12 851.797 1031.08 853.496 1025.55C860.293 1004.74 867.516 983.921 875.588 963.528C877.287 959.705 882.81 960.979 881.96 965.228Z" fill="black"/>
<path d="M823.333 1214.61C831.076 1214.61 837.353 1208.33 837.353 1200.59C837.353 1192.85 831.076 1186.57 823.333 1186.57C815.59 1186.57 809.313 1192.85 809.313 1200.59C809.313 1208.33 815.59 1214.61 823.333 1214.61Z" fill="white"/>
<path d="M777.449 1043.4C768.527 1087.16 710.749 1113.5 613.462 1073.99C512.351 1033.2 468.593 935.915 457.547 907.027C517.449 794.87 475.815 717.125 475.815 717.125C613.887 705.229 734.54 866.667 734.54 866.667L753.233 946.536C754.933 953.334 758.331 959.281 763.429 963.53C772.351 979.249 782.972 1015.36 777.449 1043.4Z" fill="white"/>
<path d="M455.424 908.301C463.496 895.981 468.594 881.536 471.993 867.517C478.365 838.203 480.49 808.465 480.914 778.726V767.68C479.64 756.634 475.816 745.164 471.568 734.968C466.045 721.373 486.012 712.876 492.385 726.471C493.235 728.17 493.235 731.144 493.235 732.844C494.509 790.621 497.058 864.968 460.522 912.974C457.973 915.523 452.875 911.7 455.424 908.301Z" fill="black"/>
<path d="M739.213 865.818C745.586 869.641 747.71 874.739 748.56 879.837C751.109 890.033 750.259 901.079 752.808 911.7C754.932 921.896 761.305 931.667 763.004 942.288C765.129 953.334 771.501 976.7 774.05 988.171C774.9 990.72 773.2 993.693 770.227 994.118C768.527 994.543 767.253 994.118 765.978 993.269C760.455 988.595 757.906 983.922 754.508 977.974C748.985 967.778 745.161 958.432 741.763 946.961C738.789 936.765 740.063 925.72 737.514 915.099C735.39 904.903 729.442 895.131 727.318 884.51C726.044 879.412 725.619 873.89 729.442 867.517C731.991 864.968 736.24 864.118 739.213 865.818Z" fill="black"/>
<path d="M769.803 977.974C688.659 973.726 622.385 948.236 557.81 833.105C612.189 881.112 676.339 899.379 743.888 907.876L752.81 946.961C754.509 953.759 764.705 973.726 769.803 977.974Z" fill="black"/>
<path d="M766.406 962.255C780.851 989.445 789.348 1023.43 780.426 1053.6C773.629 1074.84 754.086 1090.56 732.844 1096.5C683.563 1109.67 626.635 1088.86 582.877 1065.49C528.923 1035.33 488.988 984.772 463.498 929.543C461.798 925.295 467.746 921.896 470.295 926.144C479.217 943.987 489.413 961.406 500.883 977.125C512.354 993.268 525.524 1008.14 540.393 1021.31C583.727 1060.39 642.354 1084.61 700.982 1084.61C761.308 1082.91 784.25 1051.05 770.23 992.419C768.106 983.072 764.707 973.301 760.034 965.229C757.485 961.83 763.857 958.007 766.406 962.255Z" fill="black"/>
<path d="M930.817 452.027C938.464 487.713 942.287 516.602 921.47 611.765C901.078 706.504 950.784 726.046 833.104 877.713C785.098 939.739 668.692 922.321 574.379 858.17C542.516 836.504 528.921 780.85 505.13 741.34C486.438 710.327 477.941 742.615 453.3 715.85C419.738 679.314 379.379 605.818 399.346 475.818C431.634 265.099 598.594 240.458 722.222 263.824C846.699 287.615 910.424 358.138 930.817 452.027Z" fill="white"/>
<path d="M474.542 753.66C464.771 737.092 452.025 722.647 440.13 707.353C428.659 691.634 419.313 674.216 411.666 656.373C361.11 532.321 380.653 357.713 504.705 284.641C556.11 254.902 618.137 247.68 675.914 252.353C799.542 261.275 912.973 318.203 939.738 449.053C954.182 506.83 934.64 566.308 923.594 622.811C918.496 650.85 922.744 679.739 922.32 708.628C921.895 737.942 913.823 767.255 902.777 794.445C895.98 813.138 884.084 829.706 871.764 845C851.372 869.641 830.98 894.706 805.065 913.824C799.117 918.072 788.496 920.196 781.274 921.046C761.306 924.02 741.764 924.87 721.797 923.595C643.627 920.196 559.934 882.386 528.496 806.765C527.222 803.791 531.47 801.667 533.169 804.216C573.954 868.791 648.725 900.654 723.071 904.902C746.012 906.177 769.378 905.752 791.895 901.079C802.94 895.556 812.712 885.785 822.058 876.863C844.999 853.922 868.365 829.281 884.934 801.242C904.901 763.432 915.947 722.223 912.548 679.314C911.699 660.196 911.274 640.229 915.097 621.111C918.496 601.994 922.744 583.726 925.293 564.183C927.842 545.491 929.117 526.373 929.117 507.68C926.993 452.876 909.15 396.373 874.313 353.889C797.418 258.301 615.588 233.236 513.202 298.661C448.627 338.595 418.463 413.366 408.692 486.013C393.823 573.105 398.071 658.922 467.32 722.223L487.712 743.464C495.784 752.811 481.339 763.857 474.542 753.66Z" fill="black"/>
<path d="M524.671 618.562C524.671 618.562 511.501 554.837 449.475 562.484C395.945 569.281 377.253 697.582 498.756 733.268" fill="white"/>
<path d="M493.234 677.615C483.463 672.092 476.666 662.746 476.241 651.275C476.666 642.778 477.94 633.007 475.816 624.51C474.541 616.438 466.045 614.314 459.672 614.739C452.875 616.014 448.626 624.51 447.352 631.308C447.352 631.733 446.927 633.007 446.927 633.432C446.502 635.556 443.103 635.556 442.254 633.432C436.731 616.863 449.051 598.595 466.894 600.72C491.96 602.419 495.358 628.759 490.685 648.726C488.136 657.223 491.535 664.87 496.208 672.092L497.058 673.367C499.182 675.916 495.783 679.314 493.234 677.615Z" fill="black"/>
<path d="M833.102 573.53C839.475 603.693 851.37 631.732 866.24 658.072C879.41 690.36 845.423 720.948 815.259 719.673C811.861 719.673 811.436 715 814.41 714.151C833.527 708.203 850.946 695.458 853.919 675.915C855.194 669.968 853.495 664.87 850.521 659.772C836.501 633.432 828.004 603.268 830.129 573.53C830.129 571.405 833.102 571.405 833.102 573.53Z" fill="black"/>
<path d="M522.549 618.988C512.777 593.922 491.536 570.131 463.072 570.556C460.523 570.131 456.274 570.981 453.725 570.981C446.503 571.406 440.555 573.955 435.032 579.053C407.843 606.242 412.516 654.249 434.608 684.412C442.255 695.033 452.026 704.38 463.072 712.027C474.117 719.674 486.438 725.622 499.608 730.72C502.581 731.569 501.307 736.242 498.333 735.818C469.869 729.87 442.679 715.85 423.987 692.484C395.098 657.648 389.15 599.445 423.562 565.458C431.209 558.661 441.83 553.563 452.451 553.563C455.849 553.563 460.947 552.713 464.346 553.563C482.189 554.412 499.183 563.334 510.228 577.354C520 589.249 525.523 603.693 527.222 618.138C527.222 620.687 523.398 621.537 522.549 618.988Z" fill="black"/>
<path d="M800.817 761.733C787.647 772.353 769.379 772.778 753.66 768.955C748.562 767.68 742.615 766.831 739.641 761.308C736.667 756.634 739.641 750.687 745.164 749.837C750.687 748.563 754.085 751.112 758.758 752.386C771.079 756.634 784.673 759.183 797.419 754.935C800.817 754.085 804.216 759.183 800.817 761.733Z" fill="black"/>
<path d="M754.085 734.543C763.007 750.262 750.262 768.955 734.968 774.902C731.569 776.602 715.425 780 715.85 773.628C715.85 772.778 716.7 771.928 717.549 771.504C732.843 764.706 743.889 750.687 746.438 734.543C746.863 731.144 751.536 730.294 753.236 733.268L754.085 734.543Z" fill="black"/>
<path d="M674.641 616.863C664.445 616.438 656.798 607.941 657.647 597.745L658.072 585.85C658.497 575.654 666.994 568.007 677.19 568.856C687.386 569.281 695.033 577.778 694.183 587.974L693.759 599.87C693.334 609.641 684.837 617.288 674.641 616.863Z" fill="black"/>
<path d="M853.496 623.236C844.149 622.811 836.927 614.739 837.352 605.393L837.777 594.347C838.201 585.001 846.273 577.779 855.62 578.203C864.966 578.628 872.188 586.7 871.763 596.046L871.339 607.092C870.914 616.439 862.842 623.661 853.496 623.236Z" fill="black"/>
<path d="M712.876 593.922C698.856 584.576 683.562 578.203 666.569 581.602C661.046 582.451 655.523 584.151 652.124 587.974C650.85 589.674 647.876 589.249 647.876 586.7C648.301 578.203 655.523 572.68 662.32 569.281C675.49 562.484 693.758 563.759 705.654 572.68C709.902 575.229 724.347 590.948 716.7 594.347C715 595.196 714.151 594.772 712.876 593.922Z" fill="black"/>
<path d="M834.38 596.046C834.38 578.203 856.471 571.83 870.066 578.203C877.713 581.602 883.236 588.399 885.36 596.471C886.21 599.02 882.386 601.144 880.687 599.02C873.465 590.523 861.145 586.275 851.373 591.373C848.4 593.072 847.975 594.347 847.125 596.046C847.125 604.543 834.805 604.118 834.38 596.046Z" fill="black"/>
<path d="M733.269 523.824C742.19 526.798 751.112 518.726 749.412 508.955C748.563 503.857 746.438 498.759 742.19 494.935C729.445 483.464 676.765 473.268 644.902 488.138C616.863 501.732 692.484 510.229 733.269 523.824Z" fill="black"/>
<path d="M860.296 530.621C853.074 533.17 845.427 525.523 846.702 516.602C847.127 511.928 848.826 507.255 852.225 503.857C862.421 493.66 897.257 485.589 919.349 501.308C938.466 514.477 893.434 518.301 860.296 530.621Z" fill="black"/>
<path d="M881.113 327.974C859.446 308.007 832.256 288.464 799.119 275.294C700.982 235.36 609.642 236.634 537.845 267.647C535.72 226.013 524.675 162.288 475.818 151.667C401.897 135.098 427.387 215.817 450.328 266.373C450.328 266.373 361.962 187.353 323.302 240.882C286.341 292.288 378.956 348.366 378.956 348.366C378.956 348.366 241.734 359.412 270.622 437.582C287.616 482.614 344.544 467.745 390.002 447.353C353.041 593.922 417.191 693.758 450.328 733.693C484.315 774.477 487.289 805.49 487.289 805.49C504.707 795.719 483.89 751.961 484.74 729.02C378.531 688.235 397.649 569.706 449.479 562.909C503.858 556.111 520.851 604.543 523.825 616.438C543.368 593.072 543.367 570.556 539.544 547.19C524.675 461.797 533.171 415.49 584.577 404.445C666.57 386.601 740.492 428.235 838.204 441.405C874.315 446.503 896.832 413.366 923.596 425.262C926.57 434.183 929.119 443.105 931.243 452.451C932.943 459.673 934.217 466.471 935.067 473.693C939.315 414.216 926.995 370.458 881.113 327.974Z" fill="black"/>
<path d="M1224.38 358.137C1482.25 854.771 1028.95 1415.13 488.562 1278.33C245.98 1218.01 50.9803 1007.71 10.6208 760.882C-35.2615 515.327 75.6208 251.503 282.941 112.582C567.157 -82.8433 960.98 -17.8433 1164.48 261.699C1165.75 262.974 1165.33 265.098 1163.63 266.372C1162.35 267.647 1160.23 267.222 1158.95 265.523C1130.91 229.412 1099.05 196.699 1064.22 167.385C1006.86 118.529 939.738 80.2939 868.791 54.3789C507.68 -76.4708 111.307 141.046 32.2875 518.725C-56.9282 941.863 302.908 1331.44 731.993 1273.24C1062.94 1231.6 1308.92 926.144 1281.73 593.921C1275.78 513.627 1254.54 434.183 1219.28 361.111C1218.43 359.836 1219.28 358.137 1220.56 357.287C1221.83 356.438 1223.53 356.863 1224.38 358.137Z" fill="black"/>
</g>
</svg>
